<svg width="189" height="58" viewBox="0 0 189 58" fill="none" xmlns="http://www.w3.org/2000/svg">
<rect x="0.316284" y="0.864258" width="187.82" height="56.2939" rx="5.86395" fill="black"/>
<path d="M39.8918 30.2041C39.9104 28.7656 40.2925 27.3552 41.0026 26.1041C41.7127 24.853 42.7277 23.8018 43.9532 23.0483C43.1747 21.9365 42.1476 21.0214 40.9536 20.3759C39.7595 19.7304 38.4314 19.3722 37.0747 19.3297C34.1807 19.026 31.375 21.0615 29.9003 21.0615C28.397 21.0615 26.1264 19.3599 23.6813 19.4102C22.0998 19.4613 20.5584 19.9212 19.2075 20.7451C17.8565 21.569 16.742 22.7288 15.9726 24.1115C12.6394 29.8822 15.1256 38.3633 18.3185 43.0279C19.9159 45.3121 21.7829 47.8635 24.2257 47.773C26.6162 47.6739 27.509 46.2487 30.3946 46.2487C33.2533 46.2487 34.091 47.773 36.5834 47.7155C39.1485 47.6739 40.7647 45.4212 42.306 43.1155C43.4538 41.4879 44.337 39.6891 44.9229 37.7857C43.4327 37.1554 42.1609 36.1004 41.2663 34.7522C40.3716 33.4039 39.8936 31.8222 39.8918 30.2041Z" fill="white"/>
<path d="M35.1841 16.2619C36.5827 14.5829 37.2717 12.4249 37.1049 10.2461C34.9681 10.4705 32.9943 11.4918 31.5768 13.1063C30.8838 13.8951 30.353 14.8127 30.0147 15.8067C29.6765 16.8007 29.5375 17.8516 29.6057 18.8994C30.6745 18.9104 31.7318 18.6788 32.6981 18.2219C33.6643 17.7651 34.5143 17.0949 35.1841 16.2619Z" fill="white"/>
<path d="M71.0685 38.262H63.8123L62.0698 43.2897H58.9963L65.8693 24.6885H69.0625L75.9354 43.2897H72.8096L71.0685 38.262ZM64.5639 35.9419H70.3156L67.4802 27.7824H67.4008L64.5639 35.9419Z" fill="white"/>
<path d="M90.7786 36.509C90.7786 40.7234 88.4702 43.4311 84.9865 43.4311C84.1041 43.4762 83.2264 43.2775 82.4541 42.8579C81.6818 42.4383 81.0461 41.8146 80.6196 41.0584H80.5537V47.7756H77.7048V29.7274H80.4624V31.9831H80.5148C80.9609 31.2304 81.6074 30.61 82.3856 30.1878C83.1637 29.7656 84.0445 29.5575 84.9341 29.5855C88.4566 29.5855 90.7786 32.3063 90.7786 36.509ZM87.8504 36.509C87.8504 33.7633 86.3982 31.9582 84.1826 31.9582C82.0059 31.9582 80.5418 33.8014 80.5418 36.509C80.5418 39.2416 82.0059 41.0715 84.1826 41.0715C86.3982 41.0715 87.8504 39.2796 87.8504 36.509Z" fill="white"/>
<path d="M106.054 36.509C106.054 40.7234 103.746 43.431 100.262 43.431C99.3799 43.4762 98.5023 43.2775 97.73 42.8579C96.9577 42.4383 96.3219 41.8146 95.8955 41.0583H95.8296V47.7756H92.9807V29.7274H95.7383V31.9831H95.7907C96.2367 31.2304 96.8832 30.61 97.6614 30.1878C98.4396 29.7656 99.3203 29.5575 100.21 29.5855C103.733 29.5855 106.054 32.3063 106.054 36.509ZM103.126 36.509C103.126 33.7633 101.674 31.9582 99.4585 31.9582C97.2818 31.9582 95.8177 33.8013 95.8177 36.509C95.8177 39.2416 97.2818 41.0715 99.4585 41.0715C101.674 41.0715 103.126 39.2796 103.126 36.509H103.126Z" fill="white"/>
<path d="M116.151 38.1065C116.362 39.9511 118.196 41.1623 120.702 41.1623C123.103 41.1623 124.83 39.9511 124.83 38.2878C124.83 36.844 123.788 35.9795 121.321 35.3871L118.854 34.8063C115.359 33.9813 113.736 32.3839 113.736 29.7918C113.736 26.5824 116.598 24.3779 120.663 24.3779C124.685 24.3779 127.443 26.5824 127.536 29.7918H124.66C124.488 27.9355 122.917 26.815 120.622 26.815C118.327 26.815 116.757 27.9487 116.757 29.5987C116.757 30.9138 117.76 31.6876 120.214 32.28L122.311 32.7832C126.217 33.6858 127.839 35.2188 127.839 37.9396C127.839 41.4197 125.003 43.5993 120.49 43.5993C116.269 43.5993 113.418 41.4709 113.234 38.1064L116.151 38.1065Z" fill="white"/>
<path d="M133.988 26.5176V29.727H136.627V31.9315H133.988V39.4079C133.988 40.5694 134.516 41.1106 135.677 41.1106C135.99 41.1053 136.303 41.0838 136.614 41.0462V43.2375C136.092 43.3327 135.562 43.3759 135.031 43.3662C132.222 43.3662 131.126 42.335 131.126 39.7048V31.9315H129.108V29.727H131.126V26.5176H133.988Z" fill="white"/>
<path d="M138.156 36.5089C138.156 32.2419 140.728 29.5605 144.738 29.5605C148.762 29.5605 151.322 32.2418 151.322 36.5089C151.322 40.7877 148.776 43.4573 144.738 43.4573C140.702 43.4573 138.156 40.7876 138.156 36.5089ZM148.42 36.5089C148.42 33.5818 147.047 31.8542 144.738 31.8542C142.43 31.8542 141.059 33.595 141.059 36.5089C141.059 39.4477 142.43 41.1621 144.738 41.1621C147.047 41.1621 148.419 39.4477 148.419 36.5089H148.42Z" fill="white"/>
<path d="M153.671 29.7273H156.388V32.0356H156.454C156.638 31.3146 157.07 30.6775 157.678 30.2313C158.286 29.7851 159.033 29.557 159.793 29.5854C160.121 29.5842 160.448 29.6191 160.769 29.6892V32.293C160.354 32.1693 159.922 32.1125 159.489 32.1248C159.075 32.1084 158.662 32.1797 158.279 32.3338C157.896 32.488 157.552 32.7212 157.27 33.0177C156.988 33.3141 156.775 33.6666 156.645 34.0511C156.516 34.4356 156.473 34.8429 156.52 35.245V43.289H153.671L153.671 29.7273Z" fill="white"/>
<path d="M173.904 39.3058C173.521 41.7677 171.067 43.4573 167.928 43.4573C163.89 43.4573 161.384 40.814 161.384 36.5733C161.384 32.3194 163.904 29.5605 167.808 29.5605C171.648 29.5605 174.063 32.138 174.063 36.25V37.2038H164.26V37.372C164.215 37.8711 164.279 38.3739 164.447 38.847C164.616 39.3201 164.886 39.7527 165.239 40.116C165.593 40.4793 166.021 40.7651 166.496 40.9542C166.97 41.1434 167.481 41.2318 167.994 41.2133C168.667 41.275 169.342 41.1226 169.92 40.7789C170.497 40.4352 170.946 39.9186 171.199 39.3058L173.904 39.3058ZM164.273 35.2582H171.212C171.238 34.8094 171.168 34.3603 171.008 33.9391C170.847 33.5179 170.599 33.1336 170.28 32.8104C169.96 32.4872 169.575 32.2321 169.15 32.061C168.725 31.8899 168.268 31.8066 167.808 31.8162C167.344 31.8135 166.884 31.9006 166.455 32.0725C166.025 32.2443 165.635 32.4976 165.307 32.8176C164.978 33.1376 164.718 33.518 164.54 33.9369C164.363 34.3558 164.272 34.8049 164.273 35.2582V35.2582Z" fill="white"/>
<path d="M64.2067 10.6869C64.804 10.645 65.4033 10.7332 65.9615 10.945C66.5196 11.1569 67.0227 11.4872 67.4345 11.912C67.8462 12.3369 68.1563 12.8457 68.3424 13.4018C68.5285 13.958 68.586 14.5475 68.5107 15.128C68.5107 17.9834 66.9313 19.6248 64.2067 19.6248H60.9027V10.6869H64.2067ZM62.3234 18.3608H64.048C64.4748 18.3857 64.9019 18.3173 65.2982 18.1606C65.6946 18.0039 66.0502 17.7628 66.3391 17.4549C66.6281 17.147 66.8431 16.78 66.9686 16.3806C67.0941 15.9812 67.1269 15.5595 67.0645 15.1462C67.1223 14.7345 67.0863 14.3155 66.9588 13.919C66.8314 13.5226 66.6158 13.1586 66.3275 12.8531C66.0392 12.5476 65.6854 12.3082 65.2913 12.1521C64.8972 11.996 64.4726 11.9269 64.048 11.95H62.3234V18.3608Z" fill="white"/>
<path d="M70.1155 16.2497C70.0721 15.8065 70.124 15.3592 70.2679 14.9367C70.4117 14.5142 70.6443 14.1257 70.9508 13.7962C71.2574 13.4667 71.631 13.2034 72.0477 13.0232C72.4644 12.8431 72.9151 12.75 73.3708 12.75C73.8265 12.75 74.2772 12.8431 74.694 13.0232C75.1107 13.2034 75.4843 13.4667 75.7908 13.7962C76.0973 14.1257 76.33 14.5142 76.4738 14.9367C76.6177 15.3592 76.6696 15.8065 76.6262 16.2497C76.6704 16.6934 76.6191 17.1413 76.4756 17.5645C76.3322 17.9877 76.0997 18.3769 75.7931 18.707C75.4865 19.0372 75.1126 19.301 74.6954 19.4816C74.2783 19.6621 73.8271 19.7554 73.3708 19.7554C72.9146 19.7554 72.4634 19.6621 72.0462 19.4816C71.6291 19.301 71.2552 19.0372 70.9486 18.707C70.642 18.3769 70.4095 17.9877 70.266 17.5645C70.1226 17.1413 70.0713 16.6934 70.1155 16.2497ZM75.2249 16.2497C75.2249 14.7876 74.5527 13.9326 73.3731 13.9326C72.1889 13.9326 71.5228 14.7876 71.5228 16.2497C71.5228 17.7235 72.189 18.5719 73.3731 18.5719C74.5528 18.5719 75.2249 17.7176 75.2249 16.2497H75.2249Z" fill="white"/>
<path d="M85.2807 19.6249H83.8675L82.4408 14.6572H82.3331L80.9124 19.6249H79.5126L77.6099 12.8799H78.9916L80.2282 18.0267H80.33L81.7492 12.8799H83.0561L84.4753 18.0267H84.5831L85.8137 12.8799H87.176L85.2807 19.6249Z" fill="white"/>
<path d="M88.7763 12.88H90.0877V13.9515H90.1895C90.3622 13.5667 90.6534 13.2441 91.0227 13.0286C91.3919 12.8132 91.8208 12.7158 92.2494 12.7498C92.5853 12.7251 92.9225 12.7746 93.2362 12.8946C93.5498 13.0146 93.8318 13.202 94.0613 13.4429C94.2907 13.6838 94.4618 13.9721 94.5617 14.2864C94.6617 14.6007 94.688 14.9329 94.6387 15.2585V19.625H93.2764V15.5928C93.2764 14.5089 92.7943 13.9698 91.7868 13.9698C91.5588 13.9594 91.3311 13.9973 91.1195 14.081C90.9079 14.1646 90.7172 14.292 90.5607 14.4543C90.4041 14.6167 90.2853 14.8102 90.2125 15.0216C90.1396 15.233 90.1144 15.4573 90.1386 15.6791V19.625H88.7762L88.7763 12.88Z" fill="white"/>
<path d="M96.8094 10.2471H98.1718V19.6252H96.8094V10.2471Z" fill="white"/>
<path d="M100.066 16.2498C100.022 15.8065 100.074 15.3593 100.218 14.9368C100.362 14.5142 100.595 14.1257 100.901 13.7962C101.208 13.4667 101.581 13.2034 101.998 13.0232C102.415 12.8431 102.866 12.75 103.321 12.75C103.777 12.75 104.228 12.8431 104.644 13.0232C105.061 13.2034 105.435 13.4667 105.741 13.7962C106.048 14.1257 106.281 14.5142 106.424 14.9368C106.568 15.3593 106.62 15.8065 106.577 16.2498C106.621 16.6936 106.57 17.1414 106.426 17.5646C106.283 17.9878 106.05 18.377 105.744 18.7072C105.437 19.0373 105.063 19.3011 104.646 19.4817C104.229 19.6622 103.778 19.7555 103.321 19.7555C102.865 19.7555 102.414 19.6622 101.997 19.4817C101.579 19.3011 101.205 19.0373 100.899 18.7072C100.592 18.377 100.36 17.9878 100.216 17.5646C100.073 17.1414 100.021 16.6936 100.066 16.2498ZM105.175 16.2498C105.175 14.7878 104.503 13.9327 103.323 13.9327C102.139 13.9327 101.473 14.7878 101.473 16.2499C101.473 17.7236 102.139 18.5721 103.323 18.5721C104.503 18.5721 105.175 17.7178 105.175 16.2498H105.175Z" fill="white"/>
<path d="M108.011 17.7177C108.011 16.5036 108.936 15.8036 110.579 15.7041L112.448 15.5988V15.0166C112.448 14.3042 111.966 13.902 111.035 13.902C110.275 13.902 109.748 14.1748 109.596 14.6517H108.278C108.417 13.4931 109.532 12.75 111.098 12.75C112.829 12.75 113.805 13.5918 113.805 15.0166V19.6252H112.493V18.6773H112.385C112.167 19.0173 111.859 19.2945 111.495 19.4806C111.131 19.6666 110.723 19.7549 110.312 19.7364C110.022 19.7658 109.729 19.7356 109.452 19.6477C109.175 19.5598 108.92 19.4161 108.703 19.2259C108.486 19.0357 108.313 18.8032 108.194 18.5434C108.074 18.2837 108.012 18.0024 108.011 17.7177ZM112.448 17.1414V16.5774L110.763 16.6828C109.812 16.7449 109.381 17.0609 109.381 17.6555C109.381 18.2626 109.92 18.6159 110.661 18.6159C110.878 18.6373 111.097 18.6159 111.306 18.5529C111.514 18.4898 111.708 18.3864 111.875 18.2489C112.041 18.1113 112.178 17.9424 112.277 17.7521C112.375 17.5618 112.434 17.3541 112.448 17.1414Z" fill="white"/>
<path d="M115.595 16.2498C115.595 14.1184 116.717 12.7683 118.461 12.7683C118.892 12.7488 119.32 12.8498 119.695 13.0593C120.07 13.2689 120.376 13.5784 120.577 13.9516H120.679V10.2471H122.042V19.6252H120.736V18.5595H120.628C120.411 18.9302 120.094 19.2359 119.712 19.4433C119.33 19.6507 118.897 19.7521 118.461 19.7363C116.705 19.7364 115.595 18.3862 115.595 16.2498ZM117.002 16.2498C117.002 17.6804 117.693 18.5413 118.847 18.5413C119.995 18.5413 120.705 17.668 120.705 16.2556C120.705 14.8498 119.988 13.9641 118.847 13.9641C117.7 13.9641 117.002 14.8308 117.002 16.2498H117.002Z" fill="white"/>
<path d="M127.678 16.2497C127.634 15.8065 127.686 15.3592 127.83 14.9367C127.974 14.5142 128.207 14.1257 128.513 13.7962C128.82 13.4667 129.193 13.2034 129.61 13.0232C130.027 12.8431 130.477 12.75 130.933 12.75C131.389 12.75 131.839 12.8431 132.256 13.0232C132.673 13.2034 133.047 13.4667 133.353 13.7962C133.66 14.1257 133.892 14.5142 134.036 14.9367C134.18 15.3592 134.232 15.8065 134.188 16.2497C134.233 16.6934 134.181 17.1413 134.038 17.5645C133.894 17.9877 133.662 18.3769 133.355 18.707C133.049 19.0372 132.675 19.301 132.258 19.4816C131.841 19.6621 131.389 19.7554 130.933 19.7554C130.477 19.7554 130.026 19.6621 129.608 19.4816C129.191 19.301 128.817 19.0372 128.511 18.707C128.204 18.3769 127.972 17.9877 127.828 17.5645C127.685 17.1413 127.634 16.6934 127.678 16.2497ZM132.787 16.2497C132.787 14.7876 132.115 13.9326 130.935 13.9326C129.751 13.9326 129.085 14.7876 129.085 16.2497C129.085 17.7235 129.751 18.5719 130.935 18.5719C132.115 18.5719 132.787 17.7176 132.787 16.2497Z" fill="white"/>
<path d="M136.016 12.88H137.328V13.9515H137.43C137.602 13.5667 137.894 13.2441 138.263 13.0286C138.632 12.8132 139.061 12.7158 139.49 12.7498C139.825 12.7251 140.163 12.7746 140.476 12.8946C140.79 13.0146 141.072 13.202 141.301 13.4429C141.531 13.6838 141.702 13.9721 141.802 14.2864C141.902 14.6007 141.928 14.9329 141.879 15.2585V19.625H140.516V15.5928C140.516 14.5089 140.034 13.9698 139.027 13.9698C138.799 13.9594 138.571 13.9973 138.36 14.081C138.148 14.1646 137.957 14.292 137.801 14.4543C137.644 14.6167 137.525 14.8102 137.453 15.0216C137.38 15.233 137.355 15.4573 137.379 15.6791V19.625H136.016V12.88Z" fill="white"/>
<path d="M149.577 11.2012V12.9112H151.072V14.0325H149.577V17.5008C149.577 18.2073 149.875 18.5167 150.553 18.5167C150.726 18.5162 150.9 18.5059 151.072 18.486V19.5948C150.828 19.6376 150.58 19.6603 150.331 19.6628C148.816 19.6628 148.213 19.142 148.213 17.8416V14.0324H147.117V12.9111H148.213V11.2012H149.577Z" fill="white"/>
<path d="M152.933 10.2471H154.283V13.9641H154.391C154.572 13.5756 154.872 13.2512 155.248 13.035C155.625 12.8188 156.061 12.7213 156.496 12.7558C156.83 12.738 157.164 12.7925 157.474 12.9154C157.784 13.0383 158.063 13.2266 158.29 13.4668C158.517 13.7069 158.687 13.9931 158.788 14.3049C158.889 14.6166 158.918 14.9463 158.873 15.2704V19.6252H157.51V15.5988C157.51 14.5214 156.996 13.9758 156.034 13.9758C155.799 13.957 155.564 13.9885 155.343 14.0679C155.123 14.1474 154.923 14.273 154.758 14.4359C154.592 14.5987 154.465 14.795 154.385 15.0109C154.305 15.2268 154.275 15.4571 154.295 15.6858V19.6252H152.933L152.933 10.2471Z" fill="white"/>
<path d="M166.817 17.8041C166.632 18.4206 166.231 18.9538 165.684 19.3106C165.137 19.6673 164.479 19.8248 163.826 19.7555C163.371 19.7673 162.919 19.6821 162.501 19.5061C162.083 19.33 161.71 19.0673 161.406 18.736C161.103 18.4048 160.877 18.013 160.744 17.5878C160.611 17.1627 160.575 16.7144 160.637 16.274C160.576 15.8323 160.614 15.383 160.746 14.9566C160.879 14.5302 161.104 14.1366 161.405 13.8025C161.707 13.4683 162.079 13.2014 162.495 13.0199C162.912 12.8383 163.363 12.7463 163.82 12.7501C165.74 12.7501 166.899 14.0323 166.899 16.1504V16.6149H162.025V16.6895C162.003 16.937 162.035 17.1862 162.118 17.421C162.201 17.6558 162.333 17.871 162.506 18.053C162.68 18.2349 162.89 18.3795 163.123 18.4774C163.357 18.5754 163.609 18.6246 163.863 18.6218C164.189 18.66 164.519 18.6027 164.811 18.4571C165.104 18.3115 165.345 18.0842 165.505 17.8041L166.817 17.8041ZM162.025 15.6304H165.511C165.528 15.404 165.497 15.1766 165.419 14.9629C165.341 14.7491 165.218 14.5536 165.058 14.3891C164.898 14.2245 164.704 14.0945 164.49 14.0073C164.275 13.9202 164.044 13.8779 163.812 13.8831C163.576 13.8802 163.343 13.9234 163.124 14.0102C162.906 14.097 162.708 14.2256 162.541 14.3884C162.375 14.5513 162.243 14.7451 162.154 14.9584C162.066 15.1717 162.022 15.4002 162.025 15.6304H162.025Z" fill="white"/>
</svg>
