<svg width="5535" height="1800" viewBox="0 0 5535 1800" fill="none" xmlns="http://www.w3.org/2000/svg">
<path d="M2966.7 0.428853C3082.6 -5.62576 3170.66 52.6796 3208.86 159.476C3212.23 168.942 3222.44 173.508 3232.49 170.836C3240.96 168.59 3248.37 165.101 3256.11 162.316C3270.35 157.171 3283.8 153.483 3297.45 153.796C3299.08 153.853 3301.76 154.166 3303.36 153.796C3364.63 140.322 3430.38 155.265 3483.5 196.398C3538.63 239.122 3569.76 305.033 3569.14 369.646C3568.82 403.217 3565.04 425.465 3554.38 446.329C3537.6 479.133 3556.41 496.421 3575.05 505.972C3676.53 557.963 3727.5 654.359 3710.89 764.424C3696.06 862.664 3612.92 943.562 3507.13 963.233C3474.42 969.287 3449.73 980.273 3430.34 1014.36C3396.81 1073.31 3311.49 1106.28 3229.53 1091.04L3228.55 1090.94C3211.78 1089.23 3193.35 1082.6 3176.14 1074.26C3121.07 1102.91 3057.61 1119.24 2990.05 1119.24C2920.04 1119.24 2854.42 1101.7 2797.97 1071.08C2794.52 1073.39 2790.71 1075.33 2786.56 1076.84C2762.39 1085.61 2752.98 1060.63 2743.89 1035.59C2723.84 1019.85 2705.54 1002.23 2689.32 983.019C2674.04 973.116 2664.4 957.088 2657.26 938.531C2638.7 908.076 2624.83 874.824 2616.53 839.622C2585.89 857.815 2501.23 967.653 2488.29 966.073C2372.87 952.002 2281.61 873.745 2260.9 770.104C2239.57 663.108 2292.43 557.451 2393.79 505.972C2420.44 492.47 2427.82 473.959 2417.42 446.329C2383.36 356.105 2399.67 280.436 2467.62 216.278C2536.84 150.899 2618.13 133.12 2712.73 165.156C2745.82 176.385 2760.39 161.111 2768.84 142.435C2807.43 57.1286 2871.96 9.69571 2966.7 0.428853ZM2626.7 651.327C2624.75 655.37 2623.45 659.438 2622.67 663.48C2623.93 659.398 2625.28 655.347 2626.7 651.327Z" fill="url(#paint0_linear_6125_27)"/>
<path d="M3283.49 616.811C3293.65 614.552 3304.27 616.393 3312.36 622.222C3320.7 628.224 3325.75 638.118 3324.52 649.776C3302.96 932.034 3329.05 1187.19 3374.5 1367.1C3388.2 1421.34 3398.64 1462.62 3404.22 1493.2C3407.02 1508.5 3408.69 1521.6 3408.88 1532.58C3409.06 1543.45 3407.82 1553.28 3403.94 1561.42C3401.09 1567.39 3398.38 1572.26 3394.83 1576.83C3391.27 1581.39 3387.21 1585.21 3382.12 1589.44C3369.07 1600.26 3348.37 1604.39 3321.69 1606.42C3294.3 1608.5 3257.2 1608.49 3208.67 1608.49H3142.24C3123.9 1608.49 3109.88 1608.5 3099.31 1608.18C3089.02 1607.88 3080.87 1607.27 3074.83 1605.64C3054.06 1600.03 3037.59 1590.35 3026.89 1575.35C3016.2 1560.35 3012.42 1541.62 3013.89 1520.16C3014.33 1513.78 3016.97 1504.33 3020.89 1492.05C3024.95 1479.3 3030.91 1462.03 3038.76 1439.27L3038.77 1439.26C3049.56 1408.07 3057.89 1360.34 3064.65 1307.7C3071.38 1255.29 3076.43 1199.03 3080.92 1151.13C3082.75 1131.55 3084.05 1117.6 3084.15 1106.53C3084.24 1095.62 3083.14 1088.52 3080.73 1082.54C3078.31 1076.54 3074.21 1070.69 3066.69 1063.01C3059.04 1055.19 3048.58 1046.17 3033.87 1033.51C2996.43 1001.29 2947.31 958.342 2905.26 919.376C2884.24 899.901 2864.89 881.33 2849.61 865.54C2836.95 852.452 2826.36 840.547 2820.16 831.369C2820.09 831.274 2820.03 831.193 2819.99 831.13C2819.93 831.043 2819.87 830.964 2819.83 830.898C2819.78 830.832 2819.74 830.769 2819.7 830.712C2819.63 830.6 2819.56 830.488 2819.49 830.385C2819.43 830.28 2819.36 830.17 2819.29 830.058C2819.23 829.974 2819.18 829.884 2819.12 829.791C2818.47 828.772 2817.88 827.791 2817.35 826.85C2817.12 826.47 2816.91 826.091 2816.71 825.712C2815.34 823.252 2814.38 821.515 2813.74 820.356C2813.56 820.027 2813.41 819.736 2813.27 819.485C2813.14 819.237 2813.02 819.011 2812.91 818.812C2812.86 818.713 2812.81 818.607 2812.75 818.501C2812.72 818.447 2812.69 818.388 2812.66 818.325C2812.63 818.264 2812.6 818.189 2812.56 818.105C2812.52 818.026 2812.46 817.91 2812.4 817.772C2812.37 817.702 2812.33 817.612 2812.29 817.508C2812.25 817.407 2812.19 817.263 2812.12 817.091C2812.1 817.017 2812.04 816.859 2812.01 816.773C2811.98 816.67 2811.9 816.445 2811.86 816.32C2811.82 816.166 2811.73 815.815 2811.68 815.618C2811.62 815.36 2811.51 814.753 2811.46 814.402C2811.41 813.906 2811.37 812.67 2811.41 811.934C2811.57 810.785 2812.48 807.927 2813.39 806.319C2813.93 805.691 2814.74 805 2815.69 804.33C2817.49 799.365 2820.38 794.864 2823.3 791.181C2830.78 781.746 2842.11 772.682 2853.61 764.865C2876.38 749.391 2903.6 736.325 2913.8 733.019C2922.35 729.922 2935.38 725.964 2949.15 725.962C2963.32 725.96 2979.18 730.202 2991.09 744.534H2991.09C3011.75 769.367 3032.53 794.617 3053.15 819.531L3061.98 830.188L3061.98 830.195C3084.58 857.497 3107.31 885.741 3129.81 912.771C3129.86 912.814 3129.93 912.878 3130.04 912.971C3130.51 913.382 3131.47 914.209 3132.53 915.445L3132.99 916L3133.03 916.053L3133.07 916.105C3137.04 921.19 3141.27 926.532 3146.93 930.127C3152.01 933.351 3158.47 935.304 3167.8 932.671C3175 930.627 3179.51 925.536 3182.65 918.537C3185.85 911.419 3187.03 903.667 3187.95 897.78C3192.94 840.935 3210.18 746.628 3222.44 681.527C3227.02 657.252 3241.14 627.989 3270.17 620.104C3274.62 618.896 3279.14 617.777 3283.49 616.811Z" fill="url(#paint1_linear_6125_27)" stroke="white" stroke-width="23.6251"/>
<mask id="path-3-outside-1_6125_27" maskUnits="userSpaceOnUse" x="2013.67" y="591.373" width="1117" height="1027" fill="black">
<rect fill="white" x="2013.67" y="591.373" width="1117" height="1027"/>
<path d="M2451.07 1597.65C2451.07 1597.65 2451.07 1597.65 2451.07 1597.65H2276.84C2276.84 1597.65 2276.84 1597.65 2276.84 1597.65H2451.07ZM2870.42 1597.65C2870.42 1597.65 2870.42 1597.65 2870.42 1597.65H2696.18C2696.18 1597.65 2696.18 1597.65 2696.18 1597.65H2870.42ZM2497.38 635.889C2529.64 605.281 2579.96 604.453 2613.21 633.986L3080.85 1049.39C3099.14 1065.64 3109.61 1088.94 3109.61 1113.42V1512C3109.61 1559.3 3071.27 1597.65 3023.97 1597.65H2870.42V1135.63C2870.42 1108.62 2870.42 1095.11 2861.63 1089.99C2852.85 1084.86 2841.09 1091.49 2817.56 1104.77L2589.65 1233.39C2581.1 1238.22 2576.83 1240.63 2572.16 1240.62C2567.48 1240.61 2563.22 1238.18 2554.69 1233.32L2329.82 1105.14C2306.25 1091.71 2294.47 1084.99 2285.65 1090.12C2276.84 1095.24 2276.84 1108.8 2276.84 1135.93V1597.65H2120.31C2073.01 1597.65 2034.67 1559.3 2034.67 1512V1111.74C2034.67 1088.25 2044.32 1065.78 2061.36 1049.61L2497.38 635.889ZM2572.15 1343.68C2606.26 1343.68 2638.36 1356.17 2660.74 1373.21C2683.1 1390.25 2696.18 1412.19 2696.18 1438.18V1597.65H2451.07V1438.18C2451.07 1386.17 2503.94 1343.68 2572.15 1343.68Z"/>
</mask>
<path d="M2451.07 1597.65C2451.07 1597.65 2451.07 1597.65 2451.07 1597.65H2276.84C2276.84 1597.65 2276.84 1597.65 2276.84 1597.65H2451.07ZM2870.42 1597.65C2870.42 1597.65 2870.42 1597.65 2870.42 1597.65H2696.18C2696.18 1597.65 2696.18 1597.65 2696.18 1597.65H2870.42ZM2497.38 635.889C2529.64 605.281 2579.96 604.453 2613.21 633.986L3080.85 1049.39C3099.14 1065.64 3109.61 1088.94 3109.61 1113.42V1512C3109.61 1559.3 3071.27 1597.65 3023.97 1597.65H2870.42V1135.63C2870.42 1108.62 2870.42 1095.11 2861.63 1089.99C2852.85 1084.86 2841.09 1091.49 2817.56 1104.77L2589.65 1233.39C2581.1 1238.22 2576.83 1240.63 2572.16 1240.62C2567.48 1240.61 2563.22 1238.18 2554.69 1233.32L2329.82 1105.14C2306.25 1091.71 2294.47 1084.99 2285.65 1090.12C2276.84 1095.24 2276.84 1108.8 2276.84 1135.93V1597.65H2120.31C2073.01 1597.65 2034.67 1559.3 2034.67 1512V1111.74C2034.67 1088.25 2044.32 1065.78 2061.36 1049.61L2497.38 635.889ZM2572.15 1343.68C2606.26 1343.68 2638.36 1356.17 2660.74 1373.21C2683.1 1390.25 2696.18 1412.19 2696.18 1438.18V1597.65H2451.07V1438.18C2451.07 1386.17 2503.94 1343.68 2572.15 1343.68Z" fill="url(#paint2_linear_6125_27)"/>
<path d="M2451.07 1597.65C2451.07 1597.65 2451.07 1597.65 2451.07 1597.65H2276.84C2276.84 1597.65 2276.84 1597.65 2276.84 1597.65H2451.07ZM2870.42 1597.65C2870.42 1597.65 2870.42 1597.65 2870.42 1597.65H2696.18C2696.18 1597.65 2696.18 1597.65 2696.18 1597.65H2870.42ZM2497.38 635.889C2529.64 605.281 2579.96 604.453 2613.21 633.986L3080.85 1049.39C3099.14 1065.64 3109.61 1088.94 3109.61 1113.42V1512C3109.61 1559.3 3071.27 1597.65 3023.97 1597.65H2870.42V1135.63C2870.42 1108.62 2870.42 1095.11 2861.63 1089.99C2852.85 1084.86 2841.09 1091.49 2817.56 1104.77L2589.65 1233.39C2581.1 1238.22 2576.83 1240.63 2572.16 1240.62C2567.48 1240.61 2563.22 1238.18 2554.69 1233.32L2329.82 1105.14C2306.25 1091.71 2294.47 1084.99 2285.65 1090.12C2276.84 1095.24 2276.84 1108.8 2276.84 1135.93V1597.65H2120.31C2073.01 1597.65 2034.67 1559.3 2034.67 1512V1111.74C2034.67 1088.25 2044.32 1065.78 2061.36 1049.61L2497.38 635.889ZM2572.15 1343.68C2606.26 1343.68 2638.36 1356.17 2660.74 1373.21C2683.1 1390.25 2696.18 1412.19 2696.18 1438.18V1597.65H2451.07V1438.18C2451.07 1386.17 2503.94 1343.68 2572.15 1343.68Z" fill="url(#paint3_linear_6125_27)"/>
<path d="M2497.38 635.889L2483.15 620.894V620.894L2497.38 635.889ZM2613.21 633.986L2626.94 618.531V618.531L2613.21 633.986ZM3080.85 1049.39L3094.57 1033.93L3080.85 1049.39ZM2120.31 1597.65L2120.31 1618.32H2120.31V1597.65ZM2061.36 1049.61L2075.59 1064.61L2075.59 1064.61L2061.36 1049.61ZM2572.15 1343.68V1323V1343.68ZM2660.74 1373.21L2673.28 1356.77L2673.26 1356.76L2660.74 1373.21ZM2696.18 1438.18H2716.85V1438.18L2696.18 1438.18ZM2451.07 1438.18L2430.4 1438.18V1438.18H2451.07ZM2861.63 1089.99L2851.21 1107.84L2861.63 1089.99ZM2589.65 1233.39L2599.81 1251.39L2589.65 1233.39ZM2554.69 1233.32L2544.45 1251.28L2554.69 1233.32ZM2572.16 1240.62L2572.2 1219.95L2572.16 1240.62ZM2329.82 1105.14L2319.59 1123.1L2329.82 1105.14ZM2285.65 1090.12L2296.04 1107.99L2285.65 1090.12ZM2451.07 1597.65V1576.97H2276.84V1597.65V1618.32H2451.07V1597.65ZM2276.84 1597.65V1618.32H2451.07V1597.65V1576.97H2276.84V1597.65ZM2870.42 1597.65V1576.97H2696.18V1597.65V1618.32H2870.42V1597.65ZM2696.18 1597.65V1618.32H2870.42V1597.65V1576.97H2696.18V1597.65ZM2497.38 635.889L2511.61 650.885C2536.08 627.664 2574.26 627.037 2599.48 649.441L2613.21 633.986L2626.94 618.531C2585.66 581.87 2523.2 582.897 2483.15 620.894L2497.38 635.889ZM2613.21 633.986L2599.48 649.441L3067.12 1064.84L3080.85 1049.39L3094.57 1033.93L2626.94 618.531L2613.21 633.986ZM3080.85 1049.39L3067.12 1064.84C3081 1077.17 3088.94 1094.85 3088.94 1113.42H3109.61H3130.28C3130.28 1083.04 3117.29 1054.11 3094.57 1033.93L3080.85 1049.39ZM3109.61 1113.42H3088.94V1512H3109.61H3130.28V1113.42H3109.61ZM3109.61 1512H3088.94C3088.94 1547.89 3059.85 1576.97 3023.97 1576.97V1597.65V1618.32C3082.68 1618.32 3130.28 1570.72 3130.28 1512H3109.61ZM3023.97 1597.65V1576.97H2870.42V1597.65V1618.32H3023.97V1597.65ZM2870.42 1597.65H2891.09V1135.63H2870.42H2849.74V1597.65H2870.42ZM2817.56 1104.77L2807.4 1086.77L2579.49 1215.39L2589.65 1233.39L2599.81 1251.39L2827.72 1122.77L2817.56 1104.77ZM2554.69 1233.32L2564.92 1215.36L2340.06 1087.18L2329.82 1105.14L2319.59 1123.1L2544.45 1251.28L2554.69 1233.32ZM2276.84 1135.93H2256.16V1597.65H2276.84H2297.51V1135.93H2276.84ZM2276.84 1597.65V1576.97H2120.31V1597.65V1618.32H2276.84V1597.65ZM2120.31 1597.65L2120.31 1576.97C2084.43 1576.97 2055.34 1547.89 2055.34 1512H2034.67H2014C2014 1570.72 2061.6 1618.32 2120.31 1618.32L2120.31 1597.65ZM2034.67 1512H2055.34V1111.74H2034.67H2014V1512H2034.67ZM2034.67 1111.74H2055.34C2055.34 1093.92 2062.66 1076.88 2075.59 1064.61L2061.36 1049.61L2047.13 1034.62C2025.98 1054.69 2014 1082.57 2014 1111.74H2034.67ZM2061.36 1049.61L2075.59 1064.61L2511.61 650.885L2497.38 635.889L2483.15 620.894L2047.13 1034.62L2061.36 1049.61ZM2572.15 1343.68V1364.35C2601.45 1364.35 2629.21 1375.18 2648.22 1389.66L2660.74 1373.21L2673.26 1356.76C2647.51 1337.15 2611.06 1323 2572.15 1323V1343.68ZM2660.74 1373.21L2648.21 1389.65C2666.71 1403.74 2675.51 1420.08 2675.51 1438.18H2696.18L2716.85 1438.18C2716.85 1404.3 2699.49 1376.75 2673.28 1356.77L2660.74 1373.21ZM2696.18 1438.18H2675.51V1597.65H2696.18H2716.85V1438.18H2696.18ZM2696.18 1597.65V1576.97H2451.07V1597.65V1618.32H2696.18V1597.65ZM2451.07 1597.65H2471.74V1438.18H2451.07H2430.4V1597.65H2451.07ZM2451.07 1438.18H2471.74C2471.74 1401.92 2510.48 1364.35 2572.15 1364.35V1343.68V1323C2497.39 1323 2430.4 1370.43 2430.4 1438.18L2451.07 1438.18ZM2870.42 1135.63H2891.09C2891.09 1122.82 2891.14 1110.84 2889.77 1101.57C2888.36 1092.08 2884.65 1079.49 2872.06 1072.13L2861.63 1089.99L2851.21 1107.84C2847.4 1105.61 2848.08 1102.33 2848.87 1107.64C2849.69 1113.15 2849.74 1121.43 2849.74 1135.63H2870.42ZM2817.56 1104.77L2827.72 1122.77C2840.09 1115.79 2847.33 1111.77 2852.53 1109.78C2857.54 1107.85 2855.02 1110.06 2851.21 1107.84L2861.63 1089.99L2872.06 1072.13C2859.46 1064.78 2846.67 1067.74 2837.72 1071.18C2828.96 1074.53 2818.56 1080.47 2807.4 1086.77L2817.56 1104.77ZM2589.65 1233.39L2579.49 1215.39C2577.31 1216.62 2575.62 1217.57 2574.15 1218.36C2572.69 1219.16 2571.74 1219.62 2571.08 1219.91C2569.9 1220.44 2570.63 1219.94 2572.2 1219.95L2572.16 1240.62L2572.11 1261.29C2578.35 1261.3 2583.56 1259.61 2587.82 1257.72C2591.67 1256.01 2595.88 1253.61 2599.81 1251.39L2589.65 1233.39ZM2554.69 1233.32L2544.45 1251.28C2548.37 1253.51 2552.57 1255.93 2556.42 1257.65C2560.67 1259.56 2565.87 1261.28 2572.11 1261.29L2572.16 1240.62L2572.2 1219.95C2573.77 1219.95 2574.49 1220.45 2573.32 1219.92C2572.66 1219.63 2571.71 1219.15 2570.25 1218.36C2568.79 1217.56 2567.11 1216.6 2564.92 1215.36L2554.69 1233.32ZM2870.42 1597.65V1618.32C2881.83 1618.32 2891.09 1609.06 2891.09 1597.65H2870.42H2849.74C2849.74 1586.23 2859 1576.97 2870.42 1576.97V1597.65ZM2276.84 1597.65V1576.97C2288.26 1576.97 2297.51 1586.24 2297.51 1597.65H2276.84H2256.16C2256.16 1609.05 2265.41 1618.32 2276.84 1618.32V1597.65ZM2329.82 1105.14L2340.06 1087.18C2328.88 1080.81 2318.46 1074.81 2309.69 1071.4C2300.74 1067.92 2287.92 1064.89 2275.27 1072.24L2285.65 1090.12L2296.04 1107.99C2292.21 1110.22 2289.68 1107.98 2294.72 1109.94C2299.94 1111.97 2307.2 1116.04 2319.59 1123.1L2329.82 1105.14ZM2276.84 1135.93H2297.51C2297.51 1121.67 2297.56 1113.35 2298.39 1107.81C2299.18 1102.46 2299.87 1105.76 2296.04 1107.99L2285.65 1090.12L2275.27 1072.24C2262.62 1079.59 2258.9 1092.23 2257.49 1101.74C2256.11 1111.04 2256.16 1123.06 2256.16 1135.93H2276.84ZM2696.18 1597.65V1576.97C2707.61 1576.97 2716.85 1586.24 2716.85 1597.65H2696.18H2675.51C2675.51 1609.05 2684.75 1618.32 2696.18 1618.32V1597.65ZM2451.07 1597.65V1618.32C2462.49 1618.32 2471.74 1609.06 2471.74 1597.65H2451.07H2430.4C2430.4 1586.23 2439.65 1576.97 2451.07 1576.97V1597.65Z" fill="white" mask="url(#path-3-outside-1_6125_27)"/>
<path d="M479.31 1263.62C512.856 1303.42 529.629 1348.05 529.629 1397.52C528.492 1454.37 508.876 1502.13 470.781 1540.8C433.255 1578.89 387.485 1597.94 333.47 1597.94H109.167C69.3664 1597.94 46.0547 1587.14 39.2318 1565.53C35.8203 1555.87 34.1146 1541.08 34.1146 1521.18V1047.84C34.1146 1034.2 34.3989 1024.25 34.9675 1017.99C36.1046 1011.74 38.9475 1004.35 43.4961 995.817C51.4562 980.466 73.6307 972.79 110.02 972.79H324.942C377.251 972.79 421.031 990.985 456.283 1027.37C493.24 1064.33 511.719 1108.68 511.719 1160.42C511.719 1197.95 500.916 1232.35 479.31 1263.62ZM378.672 1388.99C378.672 1375.34 376.966 1364.54 373.555 1356.58C370.712 1348.62 365.595 1342.93 358.203 1339.52C346.832 1334.97 330.912 1332.7 310.443 1332.7C289.974 1332.7 274.623 1328.72 264.388 1320.76C254.154 1312.8 249.037 1296.59 249.037 1272.15C249.037 1247.13 254.154 1230.64 264.388 1222.68C275.191 1214.72 292.817 1210.74 317.266 1210.74C340.009 1210.74 353.655 1204.77 358.203 1192.83C359.909 1186.57 360.762 1176.34 360.762 1162.13C360.762 1147.91 355.929 1137.96 346.263 1132.28C337.166 1126.59 323.236 1123.75 304.473 1123.75H185.072V1446.98H324.942C360.762 1446.98 378.672 1427.65 378.672 1388.99ZM538.571 1374.49C538.571 1306.26 562.451 1249.97 610.211 1205.62C657.972 1161.27 712.555 1139.1 773.962 1139.1C835.368 1139.1 889.667 1161.27 936.859 1205.62C984.051 1249.4 1007.65 1305.41 1007.65 1373.64C1007.65 1420.83 995.422 1462.9 970.973 1499.86C946.525 1536.25 916.674 1563.26 881.423 1580.88C846.739 1597.94 810.635 1606.47 773.109 1606.47C735.583 1606.47 699.194 1597.37 663.942 1579.18C628.69 1560.41 598.84 1533.12 574.391 1497.3C550.511 1460.91 538.571 1419.98 538.571 1374.49ZM716.82 1435.9C735.014 1449.54 753.493 1456.36 772.256 1456.36C791.019 1456.36 809.782 1449.26 828.545 1435.04C847.308 1420.83 856.689 1399.79 856.689 1371.93C856.689 1344.07 847.877 1323.32 830.251 1309.67C812.625 1296.03 793.577 1289.2 773.109 1289.2C752.64 1289.2 733.593 1296.31 715.967 1310.52C698.341 1324.74 689.528 1345.78 689.528 1373.64C689.528 1400.93 698.625 1421.68 716.82 1435.9ZM1015.84 1374.49C1015.84 1306.26 1039.72 1249.97 1087.48 1205.62C1135.24 1161.27 1189.83 1139.1 1251.23 1139.1C1312.64 1139.1 1366.94 1161.27 1414.13 1205.62C1461.32 1249.4 1484.92 1305.41 1484.92 1373.64C1484.92 1420.83 1472.69 1462.9 1448.24 1499.86C1423.8 1536.25 1393.95 1563.26 1358.69 1580.88C1324.01 1597.94 1287.91 1606.47 1250.38 1606.47C1212.85 1606.47 1176.46 1597.37 1141.21 1579.18C1105.96 1560.41 1076.11 1533.12 1051.66 1497.3C1027.78 1460.91 1015.84 1419.98 1015.84 1374.49ZM1194.09 1435.9C1212.29 1449.54 1230.76 1456.36 1249.53 1456.36C1268.29 1456.36 1287.05 1449.26 1305.82 1435.04C1324.58 1420.83 1333.96 1399.79 1333.96 1371.93C1333.96 1344.07 1325.15 1323.32 1307.52 1309.67C1289.9 1296.03 1270.85 1289.2 1250.38 1289.2C1229.91 1289.2 1210.86 1296.31 1193.24 1310.52C1175.61 1324.74 1166.8 1345.78 1166.8 1373.64C1166.8 1400.93 1175.9 1421.68 1194.09 1435.9ZM1770.29 1373.64L1883.73 1467.45C1897.94 1479.39 1906.75 1488.49 1910.16 1494.74C1914.14 1501 1916.13 1506.97 1916.13 1512.65C1916.13 1526.3 1907.32 1544.78 1889.7 1568.09C1870.36 1591.97 1853.31 1603.91 1838.52 1603.91C1826.01 1603.91 1808.67 1595.67 1786.5 1579.18L1777.97 1573.21C1764.89 1562.4 1744.71 1543.64 1717.42 1516.92C1690.13 1489.63 1669.37 1470.29 1655.16 1458.92V1524.59C1655.16 1537.67 1654.59 1547.62 1653.45 1554.44C1652.88 1560.7 1650.32 1568.09 1645.78 1576.62C1638.38 1591.4 1616.49 1598.79 1580.11 1598.79C1544.29 1598.79 1522.39 1591.12 1514.43 1575.77C1510.45 1567.24 1507.9 1559.85 1506.76 1553.59C1506.19 1546.77 1505.91 1536.82 1505.91 1523.74V1012.87C1505.91 999.797 1506.19 990.132 1506.76 983.877C1507.9 977.054 1510.45 969.379 1514.43 960.85C1522.39 945.498 1544.57 937.823 1580.96 937.823C1608.25 937.823 1627.58 942.656 1638.95 952.321C1648.62 960.281 1653.74 972.79 1654.3 989.847C1654.87 994.965 1655.16 1002.92 1655.16 1013.73V1284.09C1665.39 1275.56 1680.74 1261.06 1701.21 1240.59C1722.25 1220.12 1737.89 1205.62 1748.12 1197.09L1758.35 1190.27C1778.25 1174.92 1795.31 1167.24 1809.53 1167.24C1823.74 1167.24 1839.95 1178.9 1858.14 1202.21C1876.9 1224.95 1886.28 1242.86 1886.28 1255.94C1886.28 1269.02 1875.77 1284.37 1854.73 1302L1770.29 1373.64Z" fill="#17AE7D"/>
<path d="M3994.49 973.643C4007.56 973.643 4017.23 974.212 4023.48 975.349C4030.31 975.917 4037.7 978.476 4045.66 983.024C4054.19 987.573 4060.16 995.249 4063.57 1006.05C4066.98 1016.85 4068.69 1031.35 4068.69 1049.55C4068.69 1067.74 4066.98 1082.24 4063.57 1093.04C4060.16 1103.85 4054.19 1111.52 4045.66 1116.07C4037.13 1120.05 4029.45 1122.61 4022.63 1123.75C4016.38 1124.32 4006.43 1124.6 3992.78 1124.6H3731.8V1210.74H3899.82C3913.46 1210.74 3923.41 1211.31 3929.67 1212.45C3936.49 1213.01 3944.17 1215.57 3952.7 1220.12C3967.48 1228.65 3974.87 1251.11 3974.87 1287.5C3974.87 1327.3 3964.07 1350.89 3942.46 1358.29C3933.36 1361.13 3918.87 1362.55 3898.97 1362.55H3731.8V1523.74C3731.8 1537.39 3731.24 1547.34 3730.1 1553.59C3729.53 1559.85 3726.97 1567.24 3722.42 1575.77C3714.46 1591.12 3692.29 1598.79 3655.9 1598.79C3616.1 1598.79 3592.79 1587.99 3585.96 1566.38C3582.55 1557.29 3580.85 1542.79 3580.85 1522.89V1048.7C3580.85 1019.7 3586.25 1000.08 3597.05 989.847C3607.85 979.044 3628.32 973.643 3658.46 973.643H3994.49ZM4304.82 1197.09C4308.23 1165.25 4330.69 1149.33 4372.2 1149.33C4394.37 1149.33 4410.86 1151.04 4421.66 1154.45C4432.47 1157.86 4439.86 1163.83 4443.84 1172.36C4448.39 1180.89 4450.95 1188.56 4451.52 1195.39C4452.65 1201.64 4453.22 1211.31 4453.22 1224.39V1522.89C4453.22 1535.97 4452.65 1545.92 4451.52 1552.74C4450.95 1558.99 4448.67 1566.38 4444.69 1574.91C4436.73 1589.7 4417.12 1597.09 4385.84 1597.09C4355.14 1597.09 4334.39 1593.39 4323.59 1586C4313.35 1578.04 4307.38 1566.67 4305.68 1551.89C4284.64 1582.02 4249.39 1597.09 4199.92 1597.09C4151.02 1597.09 4105.54 1574.63 4063.46 1529.71C4021.39 1484.79 4000.35 1432.77 4000.35 1373.64C4000.35 1313.94 4021.39 1261.91 4063.46 1217.56C4106.1 1172.64 4152.73 1150.19 4203.33 1150.19C4222.66 1150.19 4240.29 1153.6 4256.21 1160.42C4272.13 1167.24 4283.22 1173.78 4289.47 1180.04C4295.73 1185.72 4300.84 1191.41 4304.82 1197.09ZM4149.6 1374.49C4149.6 1393.25 4156.99 1410.31 4171.78 1425.66C4186.56 1440.44 4204.47 1447.84 4225.51 1447.84C4246.54 1447.84 4263.88 1440.16 4277.53 1424.81C4291.75 1409.46 4298.85 1392.68 4298.85 1374.49C4298.85 1355.73 4292.03 1338.38 4278.38 1322.46C4265.31 1306.54 4247.4 1298.58 4224.65 1298.58C4202.48 1298.58 4184.28 1306.54 4170.07 1322.46C4156.42 1338.38 4149.6 1355.73 4149.6 1374.49ZM4792.41 1154.45C4803.21 1157.86 4812.02 1163.83 4818.85 1172.36C4826.24 1180.32 4829.93 1193.4 4829.93 1211.59C4829.93 1229.79 4824.53 1249.69 4813.73 1271.29C4802.93 1292.9 4787.29 1303.7 4766.82 1303.7C4756.59 1303.7 4746.64 1301.43 4736.97 1296.88C4727.87 1292.33 4715.65 1290.06 4700.3 1290.06C4684.95 1290.06 4670.45 1295.46 4656.8 1306.26C4643.72 1317.06 4637.19 1330.14 4637.19 1345.49V1524.59C4637.19 1537.67 4636.62 1547.62 4635.48 1554.44C4634.91 1560.7 4632.35 1568.09 4627.8 1576.62C4619.28 1591.4 4597.1 1598.79 4561.28 1598.79C4533.99 1598.79 4514.37 1593.96 4502.43 1584.29C4493.34 1576.33 4488.22 1564.11 4487.08 1547.62C4487.08 1541.94 4487.08 1533.69 4487.08 1522.89V1223.53C4487.08 1210.46 4487.37 1200.79 4487.93 1194.53C4489.07 1187.71 4491.63 1180.32 4495.61 1172.36C4503.57 1157.01 4525.75 1149.33 4562.13 1149.33C4596.25 1149.33 4617.57 1155.87 4626.1 1168.95C4632.35 1178.05 4635.48 1187.43 4635.48 1197.09C4638.32 1193.11 4642.3 1188.28 4647.42 1182.59C4653.11 1176.91 4664.76 1169.23 4682.39 1159.57C4700.01 1149.9 4715.37 1145.07 4728.44 1145.07C4742.09 1145.07 4753.46 1145.92 4762.56 1147.63C4771.65 1148.76 4781.6 1151.04 4792.41 1154.45ZM4989.45 1209.03C5016.17 1168.66 5048.29 1148.48 5085.82 1148.48C5143.81 1148.48 5187.03 1173.21 5215.46 1222.68C5221.71 1214.15 5229.1 1205.34 5237.63 1196.24C5246.73 1186.57 5260.94 1176.34 5280.27 1165.54C5299.6 1154.17 5319.51 1148.48 5339.97 1148.48C5385.46 1148.48 5423.55 1166.11 5454.26 1201.36C5484.96 1236.04 5500.31 1293.75 5500.31 1374.49V1523.74C5500.31 1536.82 5499.74 1546.77 5498.61 1553.59C5498.04 1559.85 5495.48 1567.24 5490.93 1575.77C5483.54 1591.12 5461.65 1598.79 5425.26 1598.79C5389.44 1598.79 5367.55 1590.83 5359.59 1574.91C5355.61 1566.38 5353.05 1558.99 5351.91 1552.74C5351.35 1545.92 5351.06 1535.97 5351.06 1522.89V1373.64C5351.06 1324.17 5333.44 1299.44 5298.18 1299.44C5278.28 1299.44 5264.64 1305.98 5257.25 1319.05C5250.42 1332.13 5247.01 1350.61 5247.01 1374.49V1523.74C5247.01 1537.39 5246.44 1547.34 5245.31 1553.59C5244.74 1559.85 5242.18 1567.24 5237.63 1575.77C5229.67 1591.12 5207.5 1598.79 5171.11 1598.79C5135.29 1598.79 5113.4 1590.83 5105.44 1574.91C5101.46 1566.38 5098.9 1558.99 5097.76 1552.74C5097.19 1545.92 5096.91 1535.97 5096.91 1522.89V1373.64C5096.91 1324.17 5079.28 1299.44 5044.03 1299.44C5009.92 1299.44 4992.86 1324.17 4992.86 1373.64V1524.59C4992.86 1537.67 4992.29 1547.62 4991.15 1554.44C4990.58 1560.7 4988.02 1568.09 4983.48 1576.62C4974.95 1591.4 4952.77 1598.79 4916.95 1598.79C4881.13 1598.79 4859.24 1591.12 4851.28 1575.77C4847.3 1567.24 4844.74 1559.85 4843.61 1553.59C4843.04 1547.34 4842.75 1537.39 4842.75 1523.74V1223.53C4842.75 1210.46 4843.04 1200.79 4843.61 1194.53C4844.74 1187.71 4847.59 1180.32 4852.14 1172.36C4860.66 1157.01 4880.85 1149.33 4912.69 1149.33C4944.53 1149.33 4965.28 1154.45 4974.95 1164.68C4984.61 1174.92 4989.45 1189.7 4989.45 1209.03Z" fill="#17AE7D"/>
<defs>
<linearGradient id="paint0_linear_6125_27" x1="2985.1" y1="0" x2="2985.1" y2="1119.24" gradientUnits="userSpaceOnUse">
<stop stop-color="#17AE7D"/>
<stop offset="1" stop-color="#108F66"/>
</linearGradient>
<linearGradient id="paint1_linear_6125_27" x1="3138.84" y1="621.814" x2="3138.84" y2="1596.68" gradientUnits="userSpaceOnUse">
<stop stop-color="#F9B741"/>
<stop offset="1" stop-color="#EB9600"/>
</linearGradient>
<linearGradient id="paint2_linear_6125_27" x1="2572.14" y1="612.373" x2="2572.14" y2="1597.65" gradientUnits="userSpaceOnUse">
<stop stop-color="#17AE7D"/>
<stop offset="1" stop-color="#0A4834"/>
</linearGradient>
<linearGradient id="paint3_linear_6125_27" x1="2572.14" y1="612.373" x2="2572.14" y2="1597.65" gradientUnits="userSpaceOnUse">
<stop stop-color="#17AE7D"/>
<stop offset="1" stop-color="#108F66"/>
</linearGradient>
</defs>
</svg>
