<svg width="194" height="58" viewBox="0 0 194 58" fill="none" xmlns="http://www.w3.org/2000/svg">
<rect x="0.863892" y="0.864258" width="192.725" height="56.2939" rx="5.86395" fill="black"/>
<path d="M30.6161 28.169L15.0807 44.6572C15.0821 44.6601 15.0821 44.6645 15.0836 44.6674C15.5607 46.4578 17.195 47.7754 19.1356 47.7754C19.9119 47.7754 20.64 47.5653 21.2645 47.1976L21.3141 47.1684L38.8004 37.0785L30.6161 28.169Z" fill="#EA4335"/>
<path d="M46.3324 25.3608L46.3178 25.3505L38.7682 20.9746L30.2629 28.5431L38.7989 37.0762L46.3076 32.744C47.6237 32.0319 48.5182 30.6443 48.5182 29.0451C48.5182 27.4546 47.6369 26.0743 46.3324 25.3608Z" fill="#FBBC04"/>
<path d="M15.0804 13.3631C14.987 13.7075 14.9374 14.0693 14.9374 14.4429V43.5789C14.9374 43.9525 14.987 44.3143 15.0818 44.6572L31.1498 28.5907L15.0804 13.3631Z" fill="#4285F4"/>
<path d="M30.7308 29.0107L38.7706 20.9724L21.3048 10.8459C20.67 10.4651 19.9288 10.2462 19.1365 10.2462C17.1958 10.2462 15.5587 11.5668 15.0815 13.3586C15.0815 13.36 15.0801 13.3615 15.0801 13.363L30.7308 29.0107Z" fill="#34A853"/>
<path d="M71.386 14.9063C71.386 16.062 71.044 16.982 70.3585 17.6688C69.5793 18.4853 68.5656 18.8936 67.3188 18.8936C66.123 18.8936 65.1079 18.4798 64.2735 17.6509C63.4363 16.8234 63.0198 15.7959 63.0198 14.5711C63.0198 13.345 63.4363 12.3189 64.2735 11.49C65.1079 10.6625 66.123 10.2473 67.3188 10.2473C67.9104 10.2473 68.4787 10.3632 69.0166 10.5949C69.5558 10.8266 69.9875 11.1342 70.3116 11.519L69.5834 12.2472C69.0359 11.5934 68.2814 11.2652 67.3188 11.2652C66.4471 11.2652 65.6941 11.5714 65.0582 12.1837C64.4224 12.7975 64.1052 13.5919 64.1052 14.5711C64.1052 15.549 64.4224 16.3448 65.0582 16.9572C65.6941 17.5709 66.4471 17.8757 67.3188 17.8757C68.2428 17.8757 69.0124 17.5681 69.6303 16.9516C70.0303 16.5503 70.2606 15.9931 70.3227 15.2759H67.3188V14.2815H71.3281C71.3667 14.498 71.386 14.7063 71.386 14.9063Z" fill="white"/>
<path d="M71.386 14.9063C71.386 16.062 71.044 16.982 70.3585 17.6688C69.5793 18.4853 68.5656 18.8936 67.3188 18.8936C66.123 18.8936 65.1079 18.4798 64.2735 17.6509C63.4363 16.8234 63.0198 15.7959 63.0198 14.5711C63.0198 13.345 63.4363 12.3189 64.2735 11.49C65.1079 10.6625 66.123 10.2473 67.3188 10.2473C67.9104 10.2473 68.4787 10.3632 69.0166 10.5949C69.5558 10.8266 69.9875 11.1342 70.3116 11.519L69.5834 12.2472C69.0359 11.5934 68.2814 11.2652 67.3188 11.2652C66.4471 11.2652 65.6941 11.5714 65.0582 12.1837C64.4224 12.7975 64.1052 13.5919 64.1052 14.5711C64.1052 15.549 64.4224 16.3448 65.0582 16.9572C65.6941 17.5709 66.4471 17.8757 67.3188 17.8757C68.2428 17.8757 69.0124 17.5681 69.6303 16.9516C70.0303 16.5503 70.2606 15.9931 70.3227 15.2759H67.3188V14.2815H71.3281C71.3667 14.498 71.386 14.7063 71.386 14.9063Z" fill="white"/>
<path d="M77.7432 11.4493H73.9752V14.0725H77.3736V15.0669H73.9752V17.6902H77.7432V18.708H72.9119V10.4328H77.7432V11.4493Z" fill="white"/>
<path d="M77.7432 11.4493H73.9752V14.0725H77.3736V15.0669H73.9752V17.6902H77.7432V18.708H72.9119V10.4328H77.7432V11.4493Z" fill="white"/>
<path d="M82.2271 18.708H81.1637V11.4493H78.8522V10.4328H84.5386V11.4493H82.2271V18.708Z" fill="white"/>
<path d="M82.2271 18.708H81.1637V11.4493H78.8522V10.4328H84.5386V11.4493H82.2271V18.708Z" fill="white"/>
<path d="M88.653 10.4328H89.7163V18.708H88.653V10.4328Z" fill="white"/>
<path d="M94.4324 18.708H93.369V11.4493H91.0575V10.4328H96.744V11.4493H94.4324V18.708Z" fill="white"/>
<path d="M94.4324 18.708H93.369V11.4493H91.0575V10.4328H96.744V11.4493H94.4324V18.708Z" fill="white"/>
<path d="M102.226 16.9461C102.839 17.5668 103.587 17.8757 104.474 17.8757C105.361 17.8757 106.11 17.5668 106.722 16.9461C107.335 16.3255 107.642 15.5338 107.642 14.5711C107.642 13.6084 107.335 12.8154 106.722 12.1961C106.11 11.5755 105.361 11.2652 104.474 11.2652C103.587 11.2652 102.839 11.5755 102.226 12.1961C101.615 12.8154 101.308 13.6084 101.308 14.5711C101.308 15.5338 101.615 16.3255 102.226 16.9461ZM107.509 17.6385C106.695 18.4757 105.684 18.8936 104.474 18.8936C103.265 18.8936 102.254 18.4757 101.441 17.6385C100.628 16.8027 100.222 15.7807 100.222 14.5711C100.222 13.3616 100.628 12.3382 101.441 11.5024C102.254 10.6666 103.265 10.2473 104.474 10.2473C105.677 10.2473 106.685 10.668 107.503 11.5079C108.319 12.3479 108.728 13.3685 108.728 14.5711C108.728 15.7807 108.321 16.8027 107.509 17.6385Z" fill="white"/>
<path d="M102.226 16.9461C102.839 17.5668 103.587 17.8757 104.474 17.8757C105.361 17.8757 106.11 17.5668 106.722 16.9461C107.335 16.3255 107.642 15.5338 107.642 14.5711C107.642 13.6084 107.335 12.8154 106.722 12.1961C106.11 11.5755 105.361 11.2652 104.474 11.2652C103.587 11.2652 102.839 11.5755 102.226 12.1961C101.615 12.8154 101.308 13.6084 101.308 14.5711C101.308 15.5338 101.615 16.3255 102.226 16.9461ZM107.509 17.6385C106.695 18.4757 105.684 18.8936 104.474 18.8936C103.265 18.8936 102.254 18.4757 101.441 17.6385C100.628 16.8027 100.222 15.7807 100.222 14.5711C100.222 13.3616 100.628 12.3382 101.441 11.5024C102.254 10.6666 103.265 10.2473 104.474 10.2473C105.677 10.2473 106.685 10.668 107.503 11.5079C108.319 12.3479 108.728 13.3685 108.728 14.5711C108.728 15.7807 108.321 16.8027 107.509 17.6385Z" fill="white"/>
<path d="M110.22 18.708V10.4328H111.514L115.535 16.8695H115.582L115.535 15.2752V10.4328H116.6V18.708H115.49L111.282 11.9582H111.236L111.282 13.5539V18.708H110.22Z" fill="white"/>
<path d="M110.22 18.708V10.4328H111.514L115.535 16.8695H115.582L115.535 15.2752V10.4328H116.6V18.708H115.49L111.282 11.9582H111.236L111.282 13.5539V18.708H110.22Z" fill="white"/>
<path d="M153.473 42.1538H156.046V24.9123H153.473V42.1538ZM176.653 31.1229L173.703 38.5982H173.615L170.553 31.1229H167.781L172.372 41.5704L169.756 47.3823H172.438L179.515 31.1229H176.653ZM162.058 40.1953C161.214 40.1953 160.039 39.7746 160.039 38.7306C160.039 37.401 161.503 36.8907 162.767 36.8907C163.898 36.8907 164.432 37.1348 165.119 37.4672C164.919 39.0643 163.544 40.1953 162.058 40.1953ZM162.369 30.7464C160.505 30.7464 158.574 31.567 157.777 33.3862L160.061 34.3392C160.549 33.3862 161.458 33.0745 162.413 33.0745C163.744 33.0745 165.097 33.873 165.119 35.2936V35.4701C164.653 35.2039 163.655 34.8054 162.435 34.8054C159.973 34.8054 157.466 36.1584 157.466 38.6864C157.466 40.9938 159.485 42.4806 161.747 42.4806C163.478 42.4806 164.432 41.7041 165.031 40.7939H165.119V42.1248H167.603V35.5143C167.603 32.4538 165.319 30.7464 162.369 30.7464M146.464 33.222H142.803V27.3121H146.464C148.388 27.3121 149.48 28.9051 149.48 30.2664C149.48 31.6028 148.388 33.222 146.464 33.222ZM146.397 24.9123H140.231V42.1538H142.803V35.6218H146.397C149.25 35.6218 152.054 33.5558 152.054 30.2664C152.054 26.977 149.25 24.9123 146.397 24.9123M112.771 40.198C110.993 40.198 109.505 38.7099 109.505 36.6659C109.505 34.5999 110.993 33.0882 112.771 33.0882C114.527 33.0882 115.903 34.5999 115.903 36.6659C115.903 38.7099 114.527 40.198 112.771 40.198ZM115.727 32.0883H115.637C115.059 31.4001 113.949 30.7781 112.549 30.7781C109.616 30.7781 106.927 33.3544 106.927 36.6659C106.927 39.9539 109.616 42.5096 112.549 42.5096C113.949 42.5096 115.059 41.8876 115.637 41.1759H115.727V42.0214C115.727 44.2653 114.527 45.4652 112.593 45.4652C111.015 45.4652 110.038 44.3315 109.638 43.3757L107.394 44.3095C108.038 45.8652 109.749 47.7754 112.593 47.7754C115.615 47.7754 118.171 45.9976 118.171 41.6655V31.1325H115.727V32.0883ZM119.948 42.1538H122.526V24.911H119.948V42.1538ZM126.325 36.4659C126.258 34.1999 128.08 33.0441 129.391 33.0441C130.414 33.0441 131.28 33.5544 131.568 34.2882L126.325 36.4659ZM134.324 34.5102C133.836 33.2 132.346 30.7781 129.302 30.7781C126.28 30.7781 123.77 33.1544 123.77 36.6438C123.77 39.9319 126.258 42.5096 129.591 42.5096C132.28 42.5096 133.836 40.8656 134.48 39.9098L132.48 38.5761C131.814 39.554 130.902 40.198 129.591 40.198C128.28 40.198 127.347 39.5981 126.747 38.4216L134.59 35.1764L134.324 34.5102ZM71.835 32.5779V35.066H77.789C77.6111 36.4659 77.1449 37.4879 76.4346 38.1982C75.5671 39.0657 74.2113 40.0215 71.835 40.0215C68.1677 40.0215 65.3017 37.0659 65.3017 33.3999C65.3017 29.7326 68.1677 26.7784 71.835 26.7784C73.8128 26.7784 75.2568 27.5563 76.3229 28.5562L78.0786 26.8005C76.5891 25.3785 74.6127 24.2889 71.835 24.2889C66.8133 24.2889 62.5916 28.3783 62.5916 33.3999C62.5916 38.4216 66.8133 42.5096 71.835 42.5096C74.5451 42.5096 76.5891 41.62 78.189 39.9539C79.8344 38.3099 80.3447 35.9997 80.3447 34.1323C80.3447 33.5544 80.3005 33.022 80.2109 32.5779H71.835ZM87.1152 40.198C85.3374 40.198 83.8037 38.7319 83.8037 36.6438C83.8037 34.5323 85.3374 33.0882 87.1152 33.0882C88.8916 33.0882 90.4253 34.5323 90.4253 36.6438C90.4253 38.7319 88.8916 40.198 87.1152 40.198ZM87.1152 30.7781C83.8699 30.7781 81.226 33.2441 81.226 36.6438C81.226 40.0215 83.8699 42.5096 87.1152 42.5096C90.3591 42.5096 93.003 40.0215 93.003 36.6438C93.003 33.2441 90.3591 30.7781 87.1152 30.7781ZM99.9597 40.198C98.1819 40.198 96.6482 38.7319 96.6482 36.6438C96.6482 34.5323 98.1819 33.0882 99.9597 33.0882C101.737 33.0882 103.27 34.5323 103.27 36.6438C103.27 38.7319 101.737 40.198 99.9597 40.198ZM99.9597 30.7781C96.7158 30.7781 94.0719 33.2441 94.0719 36.6438C94.0719 40.0215 96.7158 42.5096 99.9597 42.5096C103.204 42.5096 105.848 40.0215 105.848 36.6438C105.848 33.2441 103.204 30.7781 99.9597 30.7781Z" fill="white"/>
</svg>
